<mxfile host="Electron" agent="Mozilla/5.0 (Windows NT 10.0; Win64; x64) AppleWebKit/537.36 (KHTML, like Gecko) draw.io/28.0.4 Chrome/138.0.7204.97 Electron/37.2.1 Safari/537.36" version="28.0.4" pages="2">
  <diagram name="widerView" id="2qZOBxgmshM_6JoXSCkE">
    <mxGraphModel dx="1412" dy="835" grid="1" gridSize="10" guides="1" tooltips="1" connect="1" arrows="1" fold="1" page="1" pageScale="1" pageWidth="1100" pageHeight="850" background="#FFFFFF" math="0" shadow="0">
      <root>
        <mxCell id="0" />
        <mxCell id="1" parent="0" />
        <mxCell id="eST6oOzcHnQ69CVBK5wR-42" value="" style="verticalLabelPosition=bottom;shadow=0;dashed=0;align=center;html=1;verticalAlign=top;strokeWidth=1;shape=mxgraph.mockup.graphics.simpleIcon;strokeColor=#999999;" vertex="1" parent="1">
          <mxGeometry x="10" y="230" width="1080" height="480" as="geometry" />
        </mxCell>
        <mxCell id="eST6oOzcHnQ69CVBK5wR-1" value="" style="rounded=0;whiteSpace=wrap;html=1;fillColor=#f5f5f5;fontColor=#333333;strokeColor=#666666;" vertex="1" parent="1">
          <mxGeometry x="10" y="10" width="1080" height="220" as="geometry" />
        </mxCell>
        <mxCell id="eST6oOzcHnQ69CVBK5wR-2" value="" style="rounded=0;whiteSpace=wrap;html=1;fillColor=#f5f5f5;fontColor=#333333;strokeColor=#666666;" vertex="1" parent="1">
          <mxGeometry x="10" y="710" width="1080" height="130" as="geometry" />
        </mxCell>
        <mxCell id="eST6oOzcHnQ69CVBK5wR-3" value="" style="rounded=0;whiteSpace=wrap;html=1;" vertex="1" parent="1">
          <mxGeometry x="370" y="75" width="360" height="90" as="geometry" />
        </mxCell>
        <mxCell id="eST6oOzcHnQ69CVBK5wR-4" value="&lt;font style=&quot;font-size: 41px;&quot;&gt;Japan&lt;/font&gt;" style="text;strokeColor=none;fillColor=none;html=1;fontSize=24;fontStyle=1;verticalAlign=middle;align=center;" vertex="1" parent="1">
          <mxGeometry x="460" y="95" width="180" height="50" as="geometry" />
        </mxCell>
        <mxCell id="eST6oOzcHnQ69CVBK5wR-19" value="" style="rounded=0;whiteSpace=wrap;html=1;" vertex="1" parent="1">
          <mxGeometry x="30" y="280" width="180" height="220" as="geometry" />
        </mxCell>
        <mxCell id="eST6oOzcHnQ69CVBK5wR-20" value="" style="rounded=0;whiteSpace=wrap;html=1;" vertex="1" parent="1">
          <mxGeometry x="740" y="460" width="220" height="220" as="geometry" />
        </mxCell>
        <mxCell id="eST6oOzcHnQ69CVBK5wR-21" value="Data" style="text;strokeColor=none;fillColor=none;html=1;fontSize=24;fontStyle=1;verticalAlign=middle;align=center;" vertex="1" parent="1">
          <mxGeometry x="60" y="290" width="100" height="40" as="geometry" />
        </mxCell>
        <mxCell id="eST6oOzcHnQ69CVBK5wR-22" value="Weather" style="text;strokeColor=none;fillColor=none;html=1;fontSize=24;fontStyle=1;verticalAlign=middle;align=center;" vertex="1" parent="1">
          <mxGeometry x="770" y="480" width="100" height="40" as="geometry" />
        </mxCell>
        <mxCell id="eST6oOzcHnQ69CVBK5wR-33" value="" style="shape=table;startSize=0;container=1;collapsible=0;childLayout=tableLayout;fontSize=11;fillColor=none;strokeColor=none;" vertex="1" parent="1">
          <mxGeometry x="750" y="530" width="160" height="133" as="geometry" />
        </mxCell>
        <mxCell id="eST6oOzcHnQ69CVBK5wR-34" value="" style="shape=tableRow;horizontal=0;startSize=0;swimlaneHead=0;swimlaneBody=0;strokeColor=inherit;top=0;left=0;bottom=0;right=0;collapsible=0;dropTarget=0;fillColor=none;points=[[0,0.5],[1,0.5]];portConstraint=eastwest;fontSize=16;" vertex="1" parent="eST6oOzcHnQ69CVBK5wR-33">
          <mxGeometry width="160" height="30" as="geometry" />
        </mxCell>
        <mxCell id="eST6oOzcHnQ69CVBK5wR-35" value="Label:&lt;span style=&quot;white-space: pre;&quot;&gt;&#x9;&lt;/span&gt;&lt;span style=&quot;white-space: pre;&quot;&gt;&#x9;&lt;/span&gt;Value" style="shape=partialRectangle;html=1;whiteSpace=wrap;connectable=0;strokeColor=inherit;overflow=hidden;fillColor=none;top=0;left=0;bottom=0;right=0;pointerEvents=1;fontSize=12;align=left;spacingLeft=5;" vertex="1" parent="eST6oOzcHnQ69CVBK5wR-34">
          <mxGeometry width="160" height="30" as="geometry">
            <mxRectangle width="160" height="30" as="alternateBounds" />
          </mxGeometry>
        </mxCell>
        <mxCell id="eST6oOzcHnQ69CVBK5wR-40" style="shape=tableRow;horizontal=0;startSize=0;swimlaneHead=0;swimlaneBody=0;strokeColor=inherit;top=0;left=0;bottom=0;right=0;collapsible=0;dropTarget=0;fillColor=none;points=[[0,0.5],[1,0.5]];portConstraint=eastwest;fontSize=16;" vertex="1" parent="eST6oOzcHnQ69CVBK5wR-33">
          <mxGeometry y="30" width="160" height="36" as="geometry" />
        </mxCell>
        <mxCell id="eST6oOzcHnQ69CVBK5wR-41" value="Label:&lt;span style=&quot;white-space: pre;&quot;&gt;&#x9;&lt;/span&gt;&lt;span style=&quot;white-space: pre;&quot;&gt;&#x9;&lt;/span&gt;Value" style="shape=partialRectangle;html=1;whiteSpace=wrap;connectable=0;strokeColor=inherit;overflow=hidden;fillColor=none;top=0;left=0;bottom=0;right=0;pointerEvents=1;fontSize=12;align=left;spacingLeft=5;" vertex="1" parent="eST6oOzcHnQ69CVBK5wR-40">
          <mxGeometry width="160" height="36" as="geometry">
            <mxRectangle width="160" height="36" as="alternateBounds" />
          </mxGeometry>
        </mxCell>
        <mxCell id="eST6oOzcHnQ69CVBK5wR-36" value="" style="shape=tableRow;horizontal=0;startSize=0;swimlaneHead=0;swimlaneBody=0;strokeColor=inherit;top=0;left=0;bottom=0;right=0;collapsible=0;dropTarget=0;fillColor=none;points=[[0,0.5],[1,0.5]];portConstraint=eastwest;fontSize=16;" vertex="1" parent="eST6oOzcHnQ69CVBK5wR-33">
          <mxGeometry y="66" width="160" height="31" as="geometry" />
        </mxCell>
        <mxCell id="eST6oOzcHnQ69CVBK5wR-37" value="Label:&lt;span style=&quot;white-space: pre;&quot;&gt;&#x9;&lt;/span&gt;&lt;span style=&quot;white-space: pre;&quot;&gt;&#x9;&lt;/span&gt;Value" style="shape=partialRectangle;html=1;whiteSpace=wrap;connectable=0;strokeColor=inherit;overflow=hidden;fillColor=none;top=0;left=0;bottom=0;right=0;pointerEvents=1;fontSize=12;align=left;spacingLeft=5;" vertex="1" parent="eST6oOzcHnQ69CVBK5wR-36">
          <mxGeometry width="160" height="31" as="geometry">
            <mxRectangle width="160" height="31" as="alternateBounds" />
          </mxGeometry>
        </mxCell>
        <mxCell id="eST6oOzcHnQ69CVBK5wR-38" value="" style="shape=tableRow;horizontal=0;startSize=0;swimlaneHead=0;swimlaneBody=0;strokeColor=inherit;top=0;left=0;bottom=0;right=0;collapsible=0;dropTarget=0;fillColor=none;points=[[0,0.5],[1,0.5]];portConstraint=eastwest;fontSize=16;" vertex="1" parent="eST6oOzcHnQ69CVBK5wR-33">
          <mxGeometry y="97" width="160" height="36" as="geometry" />
        </mxCell>
        <mxCell id="eST6oOzcHnQ69CVBK5wR-39" value="Label:&lt;span style=&quot;white-space: pre;&quot;&gt;&#x9;&lt;/span&gt;&lt;span style=&quot;white-space: pre;&quot;&gt;&#x9;&lt;/span&gt;Value" style="shape=partialRectangle;html=1;whiteSpace=wrap;connectable=0;strokeColor=inherit;overflow=hidden;fillColor=none;top=0;left=0;bottom=0;right=0;pointerEvents=1;fontSize=12;align=left;spacingLeft=5;" vertex="1" parent="eST6oOzcHnQ69CVBK5wR-38">
          <mxGeometry width="160" height="36" as="geometry">
            <mxRectangle width="160" height="36" as="alternateBounds" />
          </mxGeometry>
        </mxCell>
        <mxCell id="eST6oOzcHnQ69CVBK5wR-43" value="" style="verticalLabelPosition=bottom;shadow=0;dashed=0;align=center;html=1;verticalAlign=top;strokeWidth=1;shape=mxgraph.mockup.graphics.simpleIcon;strokeColor=#999999;" vertex="1" parent="1">
          <mxGeometry x="890" y="475" width="50" height="50" as="geometry" />
        </mxCell>
        <mxCell id="eST6oOzcHnQ69CVBK5wR-45" value="&lt;font style=&quot;font-size: 14px;&quot;&gt;Standard footer content | Â© | Allison Blaskey | Japan&lt;/font&gt;&lt;div&gt;&lt;font style=&quot;font-size: 14px;&quot;&gt;Last modified Date&lt;/font&gt;&lt;/div&gt;" style="text;html=1;align=center;verticalAlign=middle;whiteSpace=wrap;rounded=0;" vertex="1" parent="1">
          <mxGeometry x="375" y="760" width="350" height="30" as="geometry" />
        </mxCell>
        <mxCell id="eST6oOzcHnQ69CVBK5wR-46" value="Hero image" style="text;html=1;align=center;verticalAlign=middle;whiteSpace=wrap;rounded=0;" vertex="1" parent="1">
          <mxGeometry x="540" y="410" width="70" height="30" as="geometry" />
        </mxCell>
        <mxCell id="eST6oOzcHnQ69CVBK5wR-24" value="" style="shape=table;startSize=0;container=1;collapsible=0;childLayout=tableLayout;fontSize=11;fillColor=none;strokeColor=none;" vertex="1" parent="1">
          <mxGeometry x="40" y="330" width="160" height="163" as="geometry" />
        </mxCell>
        <mxCell id="eST6oOzcHnQ69CVBK5wR-27" value="" style="shape=tableRow;horizontal=0;startSize=0;swimlaneHead=0;swimlaneBody=0;strokeColor=inherit;top=0;left=0;bottom=0;right=0;collapsible=0;dropTarget=0;fillColor=none;points=[[0,0.5],[1,0.5]];portConstraint=eastwest;fontSize=16;" vertex="1" parent="eST6oOzcHnQ69CVBK5wR-24">
          <mxGeometry width="160" height="31" as="geometry" />
        </mxCell>
        <mxCell id="eST6oOzcHnQ69CVBK5wR-28" value="Label:&lt;span style=&quot;white-space: pre;&quot;&gt;&#x9;&lt;/span&gt;&lt;span style=&quot;white-space: pre;&quot;&gt;&#x9;&lt;/span&gt;Value" style="shape=partialRectangle;html=1;whiteSpace=wrap;connectable=0;strokeColor=inherit;overflow=hidden;fillColor=none;top=0;left=0;bottom=0;right=0;pointerEvents=1;fontSize=12;align=left;spacingLeft=5;" vertex="1" parent="eST6oOzcHnQ69CVBK5wR-27">
          <mxGeometry width="160" height="31" as="geometry">
            <mxRectangle width="160" height="31" as="alternateBounds" />
          </mxGeometry>
        </mxCell>
        <mxCell id="eST6oOzcHnQ69CVBK5wR-29" value="" style="shape=tableRow;horizontal=0;startSize=0;swimlaneHead=0;swimlaneBody=0;strokeColor=inherit;top=0;left=0;bottom=0;right=0;collapsible=0;dropTarget=0;fillColor=none;points=[[0,0.5],[1,0.5]];portConstraint=eastwest;fontSize=16;" vertex="1" parent="eST6oOzcHnQ69CVBK5wR-24">
          <mxGeometry y="31" width="160" height="36" as="geometry" />
        </mxCell>
        <mxCell id="eST6oOzcHnQ69CVBK5wR-30" value="Label:&lt;span style=&quot;white-space: pre;&quot;&gt;&#x9;&lt;/span&gt;&lt;span style=&quot;white-space: pre;&quot;&gt;&#x9;&lt;/span&gt;Value" style="shape=partialRectangle;html=1;whiteSpace=wrap;connectable=0;strokeColor=inherit;overflow=hidden;fillColor=none;top=0;left=0;bottom=0;right=0;pointerEvents=1;fontSize=12;align=left;spacingLeft=5;" vertex="1" parent="eST6oOzcHnQ69CVBK5wR-29">
          <mxGeometry width="160" height="36" as="geometry">
            <mxRectangle width="160" height="36" as="alternateBounds" />
          </mxGeometry>
        </mxCell>
        <mxCell id="eST6oOzcHnQ69CVBK5wR-31" style="shape=tableRow;horizontal=0;startSize=0;swimlaneHead=0;swimlaneBody=0;strokeColor=inherit;top=0;left=0;bottom=0;right=0;collapsible=0;dropTarget=0;fillColor=none;points=[[0,0.5],[1,0.5]];portConstraint=eastwest;fontSize=16;" vertex="1" parent="eST6oOzcHnQ69CVBK5wR-24">
          <mxGeometry y="67" width="160" height="36" as="geometry" />
        </mxCell>
        <mxCell id="eST6oOzcHnQ69CVBK5wR-32" value="Label:&lt;span style=&quot;white-space: pre;&quot;&gt;&#x9;&lt;/span&gt;&lt;span style=&quot;white-space: pre;&quot;&gt;&#x9;&lt;/span&gt;Value" style="shape=partialRectangle;html=1;whiteSpace=wrap;connectable=0;strokeColor=inherit;overflow=hidden;fillColor=none;top=0;left=0;bottom=0;right=0;pointerEvents=1;fontSize=12;align=left;spacingLeft=5;" vertex="1" parent="eST6oOzcHnQ69CVBK5wR-31">
          <mxGeometry width="160" height="36" as="geometry">
            <mxRectangle width="160" height="36" as="alternateBounds" />
          </mxGeometry>
        </mxCell>
        <mxCell id="sBiAvhQOZfsNDlRvQhzf-1" value="" style="shape=tableRow;horizontal=0;startSize=0;swimlaneHead=0;swimlaneBody=0;strokeColor=inherit;top=0;left=0;bottom=0;right=0;collapsible=0;dropTarget=0;fillColor=none;points=[[0,0.5],[1,0.5]];portConstraint=eastwest;fontSize=16;" vertex="1" parent="eST6oOzcHnQ69CVBK5wR-24">
          <mxGeometry y="103" width="160" height="30" as="geometry" />
        </mxCell>
        <mxCell id="sBiAvhQOZfsNDlRvQhzf-2" value="Label:&lt;span style=&quot;white-space: pre;&quot;&gt;&#x9;&lt;/span&gt;&lt;span style=&quot;white-space: pre;&quot;&gt;&#x9;&lt;/span&gt;Value" style="shape=partialRectangle;html=1;whiteSpace=wrap;connectable=0;strokeColor=inherit;overflow=hidden;fillColor=none;top=0;left=0;bottom=0;right=0;pointerEvents=1;fontSize=12;align=left;spacingLeft=5;" vertex="1" parent="sBiAvhQOZfsNDlRvQhzf-1">
          <mxGeometry width="160" height="30" as="geometry">
            <mxRectangle width="160" height="30" as="alternateBounds" />
          </mxGeometry>
        </mxCell>
        <mxCell id="eST6oOzcHnQ69CVBK5wR-25" value="" style="shape=tableRow;horizontal=0;startSize=0;swimlaneHead=0;swimlaneBody=0;strokeColor=inherit;top=0;left=0;bottom=0;right=0;collapsible=0;dropTarget=0;fillColor=none;points=[[0,0.5],[1,0.5]];portConstraint=eastwest;fontSize=16;" vertex="1" parent="eST6oOzcHnQ69CVBK5wR-24">
          <mxGeometry y="133" width="160" height="30" as="geometry" />
        </mxCell>
        <mxCell id="eST6oOzcHnQ69CVBK5wR-26" value="Label:&lt;span style=&quot;white-space: pre;&quot;&gt;&#x9;&lt;/span&gt;&lt;span style=&quot;white-space: pre;&quot;&gt;&#x9;&lt;/span&gt;Value" style="shape=partialRectangle;html=1;whiteSpace=wrap;connectable=0;strokeColor=inherit;overflow=hidden;fillColor=none;top=0;left=0;bottom=0;right=0;pointerEvents=1;fontSize=12;align=left;spacingLeft=5;" vertex="1" parent="eST6oOzcHnQ69CVBK5wR-25">
          <mxGeometry width="160" height="30" as="geometry">
            <mxRectangle width="160" height="30" as="alternateBounds" />
          </mxGeometry>
        </mxCell>
      </root>
    </mxGraphModel>
  </diagram>
  <diagram id="La-_bFLg-tNy6LN6NlcQ" name="mobileView">
    <mxGraphModel dx="2017" dy="1606" grid="1" gridSize="10" guides="1" tooltips="1" connect="1" arrows="1" fold="1" page="1" pageScale="1" pageWidth="291" pageHeight="413" math="0" shadow="0">
      <root>
        <mxCell id="0" />
        <mxCell id="1" parent="0" />
        <mxCell id="Ne2RfNO2-CVwfv-464T5-1" value="" style="rounded=0;whiteSpace=wrap;html=1;fillColor=#f5f5f5;fontColor=#333333;strokeColor=#666666;" vertex="1" parent="1">
          <mxGeometry x="10" y="1110" width="850" height="120" as="geometry" />
        </mxCell>
        <mxCell id="Ne2RfNO2-CVwfv-464T5-2" value="" style="rounded=0;whiteSpace=wrap;html=1;" vertex="1" parent="1">
          <mxGeometry x="20" y="770" width="830" height="320" as="geometry" />
        </mxCell>
        <mxCell id="Ne2RfNO2-CVwfv-464T5-3" value="" style="rounded=0;whiteSpace=wrap;html=1;" vertex="1" parent="1">
          <mxGeometry x="20" y="484.5" width="830" height="270" as="geometry" />
        </mxCell>
        <mxCell id="Ne2RfNO2-CVwfv-464T5-4" value="" style="rounded=0;whiteSpace=wrap;html=1;fillColor=#f5f5f5;fontColor=#333333;strokeColor=#666666;" vertex="1" parent="1">
          <mxGeometry y="-410" width="870" height="280" as="geometry" />
        </mxCell>
        <mxCell id="Ne2RfNO2-CVwfv-464T5-5" value="" style="rounded=0;whiteSpace=wrap;html=1;" vertex="1" parent="1">
          <mxGeometry x="60" y="-360" width="750" height="170" as="geometry" />
        </mxCell>
        <mxCell id="Ne2RfNO2-CVwfv-464T5-6" value="" style="verticalLabelPosition=bottom;shadow=0;dashed=0;align=center;html=1;verticalAlign=top;strokeWidth=1;shape=mxgraph.mockup.graphics.simpleIcon;strokeColor=#999999;" vertex="1" parent="1">
          <mxGeometry y="-130" width="870" height="590" as="geometry" />
        </mxCell>
        <mxCell id="Ne2RfNO2-CVwfv-464T5-7" value="&lt;font style=&quot;font-size: 14px;&quot;&gt;Small hero&lt;/font&gt;" style="text;html=1;align=center;verticalAlign=middle;whiteSpace=wrap;rounded=0;" vertex="1" parent="1">
          <mxGeometry x="410" y="120" width="80" height="30" as="geometry" />
        </mxCell>
        <mxCell id="Ne2RfNO2-CVwfv-464T5-8" value="&lt;font style=&quot;font-size: 79px;&quot;&gt;Japan&lt;/font&gt;" style="text;strokeColor=none;fillColor=none;html=1;fontSize=24;fontStyle=1;verticalAlign=middle;align=center;" vertex="1" parent="1">
          <mxGeometry x="177" y="-325" width="520" height="100" as="geometry" />
        </mxCell>
        <mxCell id="xgvcquasSFytJ5Wv_qJ_-1" value="&lt;font style=&quot;font-size: 30px;&quot;&gt;Data&lt;/font&gt;" style="text;strokeColor=none;fillColor=none;html=1;fontSize=24;fontStyle=1;verticalAlign=middle;align=center;" vertex="1" parent="1">
          <mxGeometry x="374.5" y="500" width="125" height="60" as="geometry" />
        </mxCell>
        <mxCell id="xgvcquasSFytJ5Wv_qJ_-2" value="&lt;font style=&quot;font-size: 30px;&quot;&gt;Weather&lt;/font&gt;" style="text;strokeColor=none;fillColor=none;html=1;fontSize=24;fontStyle=1;verticalAlign=middle;align=center;" vertex="1" parent="1">
          <mxGeometry x="364.5" y="786" width="145" height="64" as="geometry" />
        </mxCell>
        <mxCell id="xgvcquasSFytJ5Wv_qJ_-3" value="" style="verticalLabelPosition=bottom;shadow=0;dashed=0;align=center;html=1;verticalAlign=top;strokeWidth=1;shape=mxgraph.mockup.graphics.simpleIcon;strokeColor=#999999;" vertex="1" parent="1">
          <mxGeometry x="412" y="850.0000000000002" width="50" height="50" as="geometry" />
        </mxCell>
        <mxCell id="LUhRzPFaeWaAK3EiTwV0-3" value="" style="shape=table;startSize=0;container=1;collapsible=0;childLayout=tableLayout;fontSize=11;fillColor=none;strokeColor=none;" vertex="1" parent="1">
          <mxGeometry x="354.5" y="910" width="165" height="170" as="geometry" />
        </mxCell>
        <mxCell id="LUhRzPFaeWaAK3EiTwV0-6" value="" style="shape=tableRow;horizontal=0;startSize=0;swimlaneHead=0;swimlaneBody=0;strokeColor=inherit;top=0;left=0;bottom=0;right=0;collapsible=0;dropTarget=0;fillColor=none;points=[[0,0.5],[1,0.5]];portConstraint=eastwest;fontSize=16;" vertex="1" parent="LUhRzPFaeWaAK3EiTwV0-3">
          <mxGeometry width="165" height="42" as="geometry" />
        </mxCell>
        <mxCell id="LUhRzPFaeWaAK3EiTwV0-7" value="Label:&lt;span style=&quot;white-space: pre;&quot;&gt;&#x9;&lt;/span&gt;&lt;span style=&quot;white-space: pre;&quot;&gt;&#x9;&lt;/span&gt;Value" style="shape=partialRectangle;html=1;whiteSpace=wrap;connectable=0;strokeColor=inherit;overflow=hidden;fillColor=none;top=0;left=0;bottom=0;right=0;pointerEvents=1;fontSize=12;align=left;spacingLeft=5;" vertex="1" parent="LUhRzPFaeWaAK3EiTwV0-6">
          <mxGeometry width="165" height="42" as="geometry">
            <mxRectangle width="165" height="42" as="alternateBounds" />
          </mxGeometry>
        </mxCell>
        <mxCell id="LUhRzPFaeWaAK3EiTwV0-8" value="" style="shape=tableRow;horizontal=0;startSize=0;swimlaneHead=0;swimlaneBody=0;strokeColor=inherit;top=0;left=0;bottom=0;right=0;collapsible=0;dropTarget=0;fillColor=none;points=[[0,0.5],[1,0.5]];portConstraint=eastwest;fontSize=16;" vertex="1" parent="LUhRzPFaeWaAK3EiTwV0-3">
          <mxGeometry y="42" width="165" height="43" as="geometry" />
        </mxCell>
        <mxCell id="LUhRzPFaeWaAK3EiTwV0-9" value="Label:&lt;span style=&quot;white-space: pre;&quot;&gt;&#x9;&lt;/span&gt;&lt;span style=&quot;white-space: pre;&quot;&gt;&#x9;&lt;/span&gt;Value" style="shape=partialRectangle;html=1;whiteSpace=wrap;connectable=0;strokeColor=inherit;overflow=hidden;fillColor=none;top=0;left=0;bottom=0;right=0;pointerEvents=1;fontSize=12;align=left;spacingLeft=5;" vertex="1" parent="LUhRzPFaeWaAK3EiTwV0-8">
          <mxGeometry width="165" height="43" as="geometry">
            <mxRectangle width="165" height="43" as="alternateBounds" />
          </mxGeometry>
        </mxCell>
        <mxCell id="LUhRzPFaeWaAK3EiTwV0-10" style="shape=tableRow;horizontal=0;startSize=0;swimlaneHead=0;swimlaneBody=0;strokeColor=inherit;top=0;left=0;bottom=0;right=0;collapsible=0;dropTarget=0;fillColor=none;points=[[0,0.5],[1,0.5]];portConstraint=eastwest;fontSize=16;" vertex="1" parent="LUhRzPFaeWaAK3EiTwV0-3">
          <mxGeometry y="85" width="165" height="42" as="geometry" />
        </mxCell>
        <mxCell id="LUhRzPFaeWaAK3EiTwV0-11" value="Label:&lt;span style=&quot;white-space: pre;&quot;&gt;&#x9;&lt;/span&gt;&lt;span style=&quot;white-space: pre;&quot;&gt;&#x9;&lt;/span&gt;Value" style="shape=partialRectangle;html=1;whiteSpace=wrap;connectable=0;strokeColor=inherit;overflow=hidden;fillColor=none;top=0;left=0;bottom=0;right=0;pointerEvents=1;fontSize=12;align=left;spacingLeft=5;" vertex="1" parent="LUhRzPFaeWaAK3EiTwV0-10">
          <mxGeometry width="165" height="42" as="geometry">
            <mxRectangle width="165" height="42" as="alternateBounds" />
          </mxGeometry>
        </mxCell>
        <mxCell id="LUhRzPFaeWaAK3EiTwV0-4" value="" style="shape=tableRow;horizontal=0;startSize=0;swimlaneHead=0;swimlaneBody=0;strokeColor=inherit;top=0;left=0;bottom=0;right=0;collapsible=0;dropTarget=0;fillColor=none;points=[[0,0.5],[1,0.5]];portConstraint=eastwest;fontSize=16;" vertex="1" parent="LUhRzPFaeWaAK3EiTwV0-3">
          <mxGeometry y="127" width="165" height="43" as="geometry" />
        </mxCell>
        <mxCell id="LUhRzPFaeWaAK3EiTwV0-5" value="Label:&lt;span style=&quot;white-space: pre;&quot;&gt;&#x9;&lt;/span&gt;&lt;span style=&quot;white-space: pre;&quot;&gt;&#x9;&lt;/span&gt;Value" style="shape=partialRectangle;html=1;whiteSpace=wrap;connectable=0;strokeColor=inherit;overflow=hidden;fillColor=none;top=0;left=0;bottom=0;right=0;pointerEvents=1;fontSize=12;align=left;spacingLeft=5;" vertex="1" parent="LUhRzPFaeWaAK3EiTwV0-4">
          <mxGeometry width="165" height="43" as="geometry">
            <mxRectangle width="165" height="43" as="alternateBounds" />
          </mxGeometry>
        </mxCell>
        <mxCell id="xgvcquasSFytJ5Wv_qJ_-4" value="" style="shape=table;startSize=0;container=1;collapsible=0;childLayout=tableLayout;fontSize=11;fillColor=none;strokeColor=none;" vertex="1" parent="1">
          <mxGeometry x="367" y="560" width="140" height="188" as="geometry" />
        </mxCell>
        <mxCell id="xgvcquasSFytJ5Wv_qJ_-5" value="" style="shape=tableRow;horizontal=0;startSize=0;swimlaneHead=0;swimlaneBody=0;strokeColor=inherit;top=0;left=0;bottom=0;right=0;collapsible=0;dropTarget=0;fillColor=none;points=[[0,0.5],[1,0.5]];portConstraint=eastwest;fontSize=16;" vertex="1" parent="xgvcquasSFytJ5Wv_qJ_-4">
          <mxGeometry width="140" height="38" as="geometry" />
        </mxCell>
        <mxCell id="xgvcquasSFytJ5Wv_qJ_-6" value="Label:&lt;span style=&quot;white-space: pre;&quot;&gt;&#x9;&lt;/span&gt;&lt;span style=&quot;white-space: pre;&quot;&gt;&#x9;&lt;/span&gt;Value" style="shape=partialRectangle;html=1;whiteSpace=wrap;connectable=0;strokeColor=inherit;overflow=hidden;fillColor=none;top=0;left=0;bottom=0;right=0;pointerEvents=1;fontSize=12;align=left;spacingLeft=5;" vertex="1" parent="xgvcquasSFytJ5Wv_qJ_-5">
          <mxGeometry width="140" height="38" as="geometry">
            <mxRectangle width="140" height="38" as="alternateBounds" />
          </mxGeometry>
        </mxCell>
        <mxCell id="xgvcquasSFytJ5Wv_qJ_-7" value="" style="shape=tableRow;horizontal=0;startSize=0;swimlaneHead=0;swimlaneBody=0;strokeColor=inherit;top=0;left=0;bottom=0;right=0;collapsible=0;dropTarget=0;fillColor=none;points=[[0,0.5],[1,0.5]];portConstraint=eastwest;fontSize=16;" vertex="1" parent="xgvcquasSFytJ5Wv_qJ_-4">
          <mxGeometry y="38" width="140" height="37" as="geometry" />
        </mxCell>
        <mxCell id="xgvcquasSFytJ5Wv_qJ_-8" value="Label:&lt;span style=&quot;white-space: pre;&quot;&gt;&#x9;&lt;/span&gt;&lt;span style=&quot;white-space: pre;&quot;&gt;&#x9;&lt;/span&gt;Value" style="shape=partialRectangle;html=1;whiteSpace=wrap;connectable=0;strokeColor=inherit;overflow=hidden;fillColor=none;top=0;left=0;bottom=0;right=0;pointerEvents=1;fontSize=12;align=left;spacingLeft=5;" vertex="1" parent="xgvcquasSFytJ5Wv_qJ_-7">
          <mxGeometry width="140" height="37" as="geometry">
            <mxRectangle width="140" height="37" as="alternateBounds" />
          </mxGeometry>
        </mxCell>
        <mxCell id="xgvcquasSFytJ5Wv_qJ_-9" value="" style="shape=tableRow;horizontal=0;startSize=0;swimlaneHead=0;swimlaneBody=0;strokeColor=inherit;top=0;left=0;bottom=0;right=0;collapsible=0;dropTarget=0;fillColor=none;points=[[0,0.5],[1,0.5]];portConstraint=eastwest;fontSize=16;" vertex="1" parent="xgvcquasSFytJ5Wv_qJ_-4">
          <mxGeometry y="75" width="140" height="38" as="geometry" />
        </mxCell>
        <mxCell id="xgvcquasSFytJ5Wv_qJ_-10" value="Label:&lt;span style=&quot;white-space: pre;&quot;&gt;&#x9;&lt;/span&gt;&lt;span style=&quot;white-space: pre;&quot;&gt;&#x9;&lt;/span&gt;Value" style="shape=partialRectangle;html=1;whiteSpace=wrap;connectable=0;strokeColor=inherit;overflow=hidden;fillColor=none;top=0;left=0;bottom=0;right=0;pointerEvents=1;fontSize=12;align=left;spacingLeft=5;" vertex="1" parent="xgvcquasSFytJ5Wv_qJ_-9">
          <mxGeometry width="140" height="38" as="geometry">
            <mxRectangle width="140" height="38" as="alternateBounds" />
          </mxGeometry>
        </mxCell>
        <mxCell id="xgvcquasSFytJ5Wv_qJ_-11" style="shape=tableRow;horizontal=0;startSize=0;swimlaneHead=0;swimlaneBody=0;strokeColor=inherit;top=0;left=0;bottom=0;right=0;collapsible=0;dropTarget=0;fillColor=none;points=[[0,0.5],[1,0.5]];portConstraint=eastwest;fontSize=16;" vertex="1" parent="xgvcquasSFytJ5Wv_qJ_-4">
          <mxGeometry y="113" width="140" height="37" as="geometry" />
        </mxCell>
        <mxCell id="xgvcquasSFytJ5Wv_qJ_-12" value="Label:&lt;span style=&quot;white-space: pre;&quot;&gt;&#x9;&lt;/span&gt;&lt;span style=&quot;white-space: pre;&quot;&gt;&#x9;&lt;/span&gt;Value" style="shape=partialRectangle;html=1;whiteSpace=wrap;connectable=0;strokeColor=inherit;overflow=hidden;fillColor=none;top=0;left=0;bottom=0;right=0;pointerEvents=1;fontSize=12;align=left;spacingLeft=5;" vertex="1" parent="xgvcquasSFytJ5Wv_qJ_-11">
          <mxGeometry width="140" height="37" as="geometry">
            <mxRectangle width="140" height="37" as="alternateBounds" />
          </mxGeometry>
        </mxCell>
        <mxCell id="LUhRzPFaeWaAK3EiTwV0-21" value="" style="shape=tableRow;horizontal=0;startSize=0;swimlaneHead=0;swimlaneBody=0;strokeColor=inherit;top=0;left=0;bottom=0;right=0;collapsible=0;dropTarget=0;fillColor=none;points=[[0,0.5],[1,0.5]];portConstraint=eastwest;fontSize=16;" vertex="1" parent="xgvcquasSFytJ5Wv_qJ_-4">
          <mxGeometry y="150" width="140" height="38" as="geometry" />
        </mxCell>
        <mxCell id="LUhRzPFaeWaAK3EiTwV0-22" value="Label:&lt;span style=&quot;white-space: pre;&quot;&gt;&#x9;&lt;/span&gt;&lt;span style=&quot;white-space: pre;&quot;&gt;&#x9;&lt;/span&gt;Value" style="shape=partialRectangle;html=1;whiteSpace=wrap;connectable=0;strokeColor=inherit;overflow=hidden;fillColor=none;top=0;left=0;bottom=0;right=0;pointerEvents=1;fontSize=12;align=left;spacingLeft=5;" vertex="1" parent="LUhRzPFaeWaAK3EiTwV0-21">
          <mxGeometry width="140" height="38" as="geometry">
            <mxRectangle width="140" height="38" as="alternateBounds" />
          </mxGeometry>
        </mxCell>
        <mxCell id="T4Mj1yi5Nk-5JwJdq7kc-1" value="&lt;font style=&quot;font-size: 16px;&quot;&gt;Standard Footer content | Â© | Allison Blaskey | Japan&lt;/font&gt;&lt;div&gt;&lt;span style=&quot;font-size: 16px;&quot;&gt;Last modified Date&lt;/span&gt;&lt;/div&gt;" style="text;html=1;align=center;verticalAlign=middle;whiteSpace=wrap;rounded=0;" vertex="1" parent="1">
          <mxGeometry x="190" y="1140" width="490" height="60" as="geometry" />
        </mxCell>
      </root>
    </mxGraphModel>
  </diagram>
</mxfile>
